<?xml version="1.0" encoding="UTF-8"?>
<svg viewBox="0 0 128 128" xmlns="http://www.w3.org/2000/svg" role="img" aria-hidden="true">
  <defs>
    <linearGradient id="tx-gold" x1="10" y1="8" x2="118" y2="120" gradientUnits="userSpaceOnUse">
      <stop offset="0%" stop-color="#F2D48A"/>
      <stop offset="45%" stop-color="#D4AF5A"/>
      <stop offset="100%" stop-color="#9A7228"/>
    </linearGradient>
  </defs>
  <g fill="url(#tx-gold)">
    <path d="M 28.5 0 Q 30 3.5 31.5 1 L 34.5 2 L 35.5 1 L 57.5 1 L 64 2.5 L 28.5 4 L 24.5 5 L 20.5 9 L 20.5 7 L 18 8.5 L 18.5 10 L 16.5 10 L 14 11.5 L 15 12.5 L 11.5 16 Q 10.3 13.8 9 16.5 L 2.5 31 L 1 30.5 L 5 19.5 L 4.5 18 L 6 17.5 Q 3.7 16.3 6.5 15 L 9 13.5 L 8 12.5 L 13 7.5 L 12.5 6 L 14.5 6 L 16 5.5 L 15.5 4 L 17 4.5 L 17.5 3 L 19.5 3 Q 23.8 3.8 24.5 1 L 26.5 1 L 28.5 0 Z M 24 3 L 24 4 L 24 3 Z M 18 6 L 18 7 L 18 6 Z M 22 6 L 22 7 L 22 6 Z M 15 8 L 15 9 L 15 8 Z M 14 9 L 14 10 L 14 9 Z M 13 10 L 13 11 L 13 10 Z M 11 11 L 11 12 L 11 11 Z M 10 12 L 10 13 L 10 12 Z M 14 12 L 14 13 L 14 12 Z M 13 13 L 13 14 L 13 13 Z M 12 14 L 12 15 L 12 14 Z "/>
    <path d="M 97.5 1 L 101.5 1 L 109 3.5 L 109.5 5 Q 117.5 6 120 12.5 Q 124.9 17.6 126 26.5 L 124.5 27 L 121.5 19 L 120 19.5 L 121 17.5 L 119 17.5 L 120 15.5 L 117 14.5 L 117 12.5 L 115.5 10 L 107.5 5 L 96 2.5 L 97.5 1 Z "/>
    <path d="M 65.5 2 L 71 2.5 L 65.5 3 L 65.5 2 Z "/>
    <path d="M 29.5 5 L 31 5.5 L 29.5 6 L 29.5 5 Z "/>
    <path d="M 31.5 28 L 29.5 31 L 29 29.5 L 31.5 28 Z "/>
    <path d="M 124.5 28 L 126 28.5 L 125.5 51 L 124 49.5 L 124 30.5 L 124.5 28 Z "/>
    <path d="M 68.5 29 L 70.5 30 L 72 29.5 L 71 31.5 L 75 34.5 L 76 38.5 L 74 44.5 L 71.5 47 L 68.5 49 L 40.5 49 Q 39.3 46.8 34.5 48 L 32.5 48 Q 26.7 48.8 25 45.5 L 23 38.5 Q 24.8 40.1 26.5 37 L 37.5 33 L 51 31.5 L 49 30.5 L 67.5 30 L 68.5 29 Z "/>
    <path d="M 96.5 29 L 97.5 31 L 100.5 30 L 101.5 33 L 104 34.5 L 103 41.5 L 94 52.5 L 94.5 54 Q 93.3 51.8 92 54.5 L 93 56.5 L 91.5 56 L 86 61.5 L 84 66.5 L 87 67.5 L 86 68.5 L 89 71.5 L 102 87.5 Q 104.8 90.2 104 96.5 L 101.5 100 Q 99.2 102.7 93.5 102 L 87.5 97 L 86 97.5 L 87 96.5 L 84 93.5 L 80.5 89 L 79 89.5 L 79 87.5 L 76.5 84 L 74.5 83 L 71 85.5 L 70 87.5 L 70.5 89 Q 68.8 86.3 67 90.5 L 66.5 92 L 65 92.5 L 64 94.5 L 64.5 96 L 63.5 95 L 59 99.5 Q 61.3 100.8 58.5 102 L 56.5 101 L 56.5 103 L 51 101.5 L 59 97.5 L 58.5 96 Q 59.8 98.3 61 95.5 L 60.5 94 Q 61.8 96.3 63 93.5 L 66 89.5 L 65.5 88 Q 66.8 90.2 68 87.5 L 69 85.5 Q 66.8 84.3 69.5 83 Q 71 85.5 72.5 82 L 77.5 83 L 79 82.5 Q 76.8 83.8 79.5 85 Q 80.8 82.8 82 85.5 Q 79.5 87 83 88.5 L 83.5 90 L 85 89.5 Q 82.8 90.8 85.5 92 L 87 91.5 L 87 93.5 L 91.5 99 L 95.5 98 L 99 98.5 L 99.5 97 Q 100.8 99.2 102 96.5 L 102 90.5 L 85 70.5 Q 82.2 68.8 83 63.5 Q 85.3 62.2 82.5 61 L 80.5 62 Q 78.5 58 76.5 62 L 73.5 61 L 68.5 64 Q 66.8 61.3 65 65.5 L 65.5 67 L 67 66.5 Q 64.5 68 68 69.5 L 67 74.5 L 55.5 88 Q 50.8 88.8 50 85.5 L 51.5 85 L 55.5 86 L 60.5 79 L 62 78.5 L 66 72.5 L 66 69.5 L 61 66.5 L 63 66.5 L 57.5 59 L 56 59.5 Q 58.5 58 55 56.5 L 55.5 55 L 71.5 55 L 73 53.5 L 75 50.5 L 74.5 49 Q 75.8 51.3 77 48.5 L 77.5 47 L 79 46.5 L 81.5 42 L 87 38.5 L 85 37.5 L 85.5 36 Q 87.3 39.8 89 36.5 L 88.5 35 L 91 33.5 L 90.5 32 L 92 32.5 L 92.5 31 L 94.5 32 L 94.5 30 L 96.5 29 Z M 84 60 L 84 61 L 85 61 L 84 60 Z M 70 84 L 70 85 L 70 84 Z M 81 85 L 81 86 L 81 85 Z M 95 99 L 95 100 L 95 99 Z M 59 100 L 59 101 L 59 100 Z "/>
    <path d="M 27.5 30 L 24 34.5 L 23.5 36 L 23 34.5 L 25.5 31 L 27.5 30 Z "/>
    <path d="M 3.5 33 L 4 41.5 L 2.5 42 L 2 36.5 L 3.5 33 Z "/>
    <path d="M 2.5 49 Q 5 50 4 54.5 L 4 56.5 L 3.5 58 L 2 57.5 L 2.5 49 Z "/>
    <path d="M 48.5 50 L 66 50.5 L 48.5 51 L 48.5 50 Z "/>
    <path d="M 124.5 52 L 126 52.5 L 125.5 56 Q 123 55 124.5 52 Z "/>
    <path d="M 56.5 53 L 70 53.5 L 56.5 54 L 56.5 53 Z "/>
    <path d="M 41.5 55 L 45.5 55 L 48 56.5 Q 45.7 57.8 48.5 59 L 51 60.5 L 50.5 84 L 49.5 80 L 48.5 83 Q 47 80.5 45.5 84 L 41 86.5 L 40.5 88 L 38.5 89 L 37.5 87 L 36 90.5 Q 37.4 96.6 42.5 99 L 49 101.5 L 45.5 102 L 41.5 100 L 41.5 102 L 39.5 99 L 38 99.5 L 39 97.5 L 36 95.5 L 34 90.5 L 34 68.5 L 37 62.5 L 36.5 61 L 38 60.5 L 39.5 57 L 43.5 58 L 44 56.5 Q 41.9 58.1 41.5 55 Z M 46 56 L 46 57 L 46 56 Z M 48 80 L 48 81 L 48 80 Z "/>
    <path d="M 3.5 64 L 4 76.5 L 2 77.5 L 2 66.5 L 3.5 64 Z "/>
    <path d="M 33.5 64 L 34 66.5 L 33 66.5 L 33.5 64 Z "/>
    <path d="M 52.5 64 L 53 70.5 L 52 70.5 L 52.5 64 Z "/>
    <path d="M 64.5 70 L 65 71.5 L 64 71.5 L 64.5 70 Z "/>
    <path d="M 1.5 81 L 3 81.5 L 3 98.5 L 4 99.5 L 4 101.5 L 8.5 113 L 10 112.5 Q 7.3 114.3 11.5 116 L 13 115.5 L 12 116.5 L 15.5 120 L 17 119.5 L 16.5 121 L 31 126.5 L 25.5 127 L 20.5 125 L 19 125.5 L 19.5 124 L 16.5 123 Q 14.7 125.7 13 121.5 L 13.5 120 L 11 118.5 L 3 106.5 L 1 97.5 L 1.5 81 Z M 15 121 L 15 122 L 15 121 Z M 16 122 L 16 123 L 16 122 Z "/>
    <path d="M 32.5 87 L 33 88.5 L 32 88.5 L 32.5 87 Z "/>
    <path d="M 125.5 90 Q 128.5 91.5 127 97.5 L 125 96.5 L 125.5 90 Z "/>
    <path d="M 124.5 99 L 126 99.5 L 126 103.5 L 123 111.5 L 123.5 113 Q 122.2 110.8 121 113.5 L 122 115.5 L 120.5 115 L 115 120.5 L 115.5 122 L 113.5 122 L 106.5 126 L 106 124.5 L 111 121.5 L 110.5 120 L 112 120.5 L 112.5 119 L 113.5 120 L 119 114.5 Q 123.5 108.5 124.5 99 Z "/>
    <path d="M 53.5 103 L 55 103.5 L 53.5 104 L 53.5 103 Z "/>
    <path d="M 94.5 103 L 96 103.5 L 94.5 104 L 94.5 103 Z "/>
  </g>
</svg>